<?xml version="1.0" encoding="UTF-8" standalone="no"?>
<!-- Created with Inkscape (http://www.inkscape.org/) -->

<svg
   xmlns:dc="http://purl.org/dc/elements/1.1/"
   xmlns:cc="http://creativecommons.org/ns#"
   xmlns:rdf="http://www.w3.org/1999/02/22-rdf-syntax-ns#"
   xmlns:svg="http://www.w3.org/2000/svg"
   xmlns="http://www.w3.org/2000/svg"
   xmlns:sodipodi="http://sodipodi.sourceforge.net/DTD/sodipodi-0.dtd"
   xmlns:inkscape="http://www.inkscape.org/namespaces/inkscape"
   width="250"
   height="250"
   id="svg3354"
   version="1.1"
   inkscape:version="0.48.4 r9939"
   sodipodi:docname="application-x-pynguin.svg">
  <defs
     id="defs3356" />
  <sodipodi:namedview
     id="base"
     pagecolor="#ffffff"
     bordercolor="#666666"
     borderopacity="1.0"
     inkscape:pageopacity="0.0"
     inkscape:pageshadow="2"
     inkscape:zoom="1.4"
     inkscape:cx="67.567154"
     inkscape:cy="113.56148"
     inkscape:document-units="px"
     inkscape:current-layer="layer1"
     showgrid="false"
     inkscape:window-width="1024"
     inkscape:window-height="748"
     inkscape:window-x="-1"
     inkscape:window-y="0"
     inkscape:window-maximized="1" />
  <metadata
     id="metadata3359">
    <rdf:RDF>
      <cc:Work
         rdf:about="">
        <dc:format>image/svg+xml</dc:format>
        <dc:type
           rdf:resource="http://purl.org/dc/dcmitype/StillImage" />
        <dc:title />
      </cc:Work>
    </rdf:RDF>
  </metadata>
  <g
     inkscape:label="Layer 1"
     inkscape:groupmode="layer"
     id="layer1"
     transform="translate(0,-802.36218)">
    <g
       id="g4679">
      <g
         id="g4652">
        <rect
           style="color:#000000;fill:#000000;fill-opacity:1;fill-rule:nonzero;stroke:#d1d1d1;stroke-width:1.99999999;stroke-linecap:square;stroke-linejoin:bevel;stroke-miterlimit:4;stroke-opacity:1;stroke-dasharray:none;stroke-dashoffset:0;marker:none;visibility:visible;display:inline;overflow:visible;enable-background:accumulate"
           id="rect3091"
           width="118.18785"
           height="171.72594"
           x="248.10896"
           y="768.74457"
           transform="matrix(0.97894056,0.2041455,-0.2041455,0.97894056,0,0)" />
        <text
           xml:space="preserve"
           style="font-size:13.68170166px;font-style:normal;font-weight:normal;line-height:125%;letter-spacing:0px;word-spacing:0px;fill:#00ff00;fill-opacity:1;stroke:none;font-family:Bitstream Vera Sans"
           x="253.34178"
           y="785.11426"
           id="text3093"
           sodipodi:linespacing="125%"
           transform="matrix(0.97894056,0.2041455,-0.2041455,0.97894056,0,0)"><tspan
             sodipodi:role="line"
             id="tspan3095"
             x="253.34178"
             y="785.11426">def <tspan
   style="fill:#ff0000"
   id="tspan3097">foo</tspan><tspan
   id="tspan3101"
   style="fill:#0000ff">():</tspan></tspan><tspan
             sodipodi:role="line"
             x="253.34178"
             y="802.21637"
             id="tspan3103">    fd<tspan
   style="fill:#0000ff"
   id="tspan3115">(</tspan><tspan
   style="fill:#ffff00"
   id="tspan3109">100</tspan><tspan
   style="fill:#0000ff"
   id="tspan3117">)</tspan></tspan><tspan
             sodipodi:role="line"
             x="253.34178"
             y="819.31854"
             id="tspan3105">    lt<tspan
   style="fill:#0000ff"
   id="tspan3121">(</tspan><tspan
   style="fill:#ffff00"
   id="tspan3111">90</tspan><tspan
   style="fill:#0000ff"
   id="tspan3119">)</tspan></tspan><tspan
             sodipodi:role="line"
             x="253.34178"
             y="836.42065"
             id="tspan3107">    circle<tspan
   style="fill:#0000ff"
   id="tspan3123">(</tspan><tspan
   id="tspan3143"
   style="fill:#ffff00">100</tspan><tspan
   style="fill:#0000ff"
   id="tspan3125">)</tspan></tspan><tspan
             sodipodi:role="line"
             x="253.34178"
             y="853.52277"
             id="tspan3127">    rt<tspan
   style="fill:#0000ff"
   id="tspan3133">(</tspan><tspan
   style="fill:#ffff00"
   id="tspan3129">90</tspan><tspan
   style="fill:#0000ff"
   id="tspan3131">)</tspan></tspan><tspan
             sodipodi:role="line"
             x="253.34178"
             y="870.62488"
             id="tspan3139">    square<tspan
   style="fill:#0000ff"
   id="tspan3147">(</tspan><tspan
   style="fill:#ffff00"
   id="tspan3145">200</tspan><tspan
   style="fill:#0000ff"
   id="tspan3149">)</tspan></tspan></text>
      </g>
      <g
         id="g4625">
        <rect
           style="color:#000000;fill:#000000;fill-opacity:1;fill-rule:nonzero;stroke:#d1d1d1;stroke-width:2;stroke-linecap:square;stroke-linejoin:bevel;stroke-miterlimit:4;stroke-opacity:1;stroke-dasharray:none;stroke-dashoffset:0;marker:none;visibility:visible;display:inline;overflow:visible;enable-background:accumulate"
           id="rect3091-8"
           width="118.18785"
           height="171.72594"
           x="639.48651"
           y="536.12012"
           transform="matrix(0.77476502,0.63224929,-0.63224929,0.77476502,0,0)" />
        <text
           xml:space="preserve"
           style="font-size:13.68170166px;font-style:normal;font-weight:normal;line-height:125%;letter-spacing:0px;word-spacing:0px;fill:#00ff00;fill-opacity:1;stroke:none;font-family:Bitstream Vera Sans"
           x="644.71936"
           y="552.48975"
           id="text3093-7"
           sodipodi:linespacing="125%"
           transform="matrix(0.77476502,0.63224929,-0.63224929,0.77476502,0,0)"><tspan
             sodipodi:role="line"
             id="tspan3095-7"
             x="644.71936"
             y="552.48975">def <tspan
   id="tspan4132"
   style="fill:#ff0000">bar</tspan><tspan
   id="tspan3101-6"
   style="fill:#0000ff">():</tspan></tspan><tspan
             sodipodi:role="line"
             x="644.71936"
             y="569.59186"
             id="tspan3103-9">    fd<tspan
   style="fill:#0000ff"
   id="tspan3115-1">(</tspan><tspan
   style="fill:#ffff00"
   id="tspan3109-3">100</tspan><tspan
   style="fill:#0000ff"
   id="tspan3117-1">)</tspan></tspan><tspan
             sodipodi:role="line"
             x="644.71936"
             y="586.69403"
             id="tspan3105-5">    lt<tspan
   style="fill:#0000ff"
   id="tspan3121-7">(</tspan><tspan
   style="fill:#ffff00"
   id="tspan3111-0">90</tspan><tspan
   style="fill:#0000ff"
   id="tspan3119-1">)</tspan></tspan><tspan
             sodipodi:role="line"
             x="644.71936"
             y="603.79614"
             id="tspan3107-8">    circle<tspan
   style="fill:#0000ff"
   id="tspan3123-0">(</tspan><tspan
   id="tspan3143-3"
   style="fill:#ffff00">100</tspan><tspan
   style="fill:#0000ff"
   id="tspan3125-0">)</tspan></tspan><tspan
             sodipodi:role="line"
             x="644.71936"
             y="620.89825"
             id="tspan3127-5">    rt<tspan
   style="fill:#0000ff"
   id="tspan3133-8">(</tspan><tspan
   style="fill:#ffff00"
   id="tspan3129-2">90</tspan><tspan
   style="fill:#0000ff"
   id="tspan3131-3">)</tspan></tspan><tspan
             sodipodi:role="line"
             x="644.71936"
             y="638.00037"
             id="tspan3139-2">    square<tspan
   style="fill:#0000ff"
   id="tspan3147-0">(</tspan><tspan
   style="fill:#ffff00"
   id="tspan3145-7">200</tspan><tspan
   style="fill:#0000ff"
   id="tspan3149-0">)</tspan></tspan></text>
      </g>
      <g
         id="g4598">
        <rect
           style="color:#000000;fill:#000000;fill-opacity:1;fill-rule:nonzero;stroke:#d1d1d1;stroke-width:2;stroke-linecap:square;stroke-linejoin:bevel;stroke-miterlimit:4;stroke-opacity:1;stroke-dasharray:none;stroke-dashoffset:0;marker:none;visibility:visible;display:inline;overflow:visible;enable-background:accumulate"
           id="rect3091-8-9"
           width="118.18785"
           height="171.72594"
           x="885.09442"
           y="130.34563"
           transform="matrix(0.36973972,0.92913537,-0.92913537,0.36973972,0,0)" />
        <text
           xml:space="preserve"
           style="font-size:13.68170166px;font-style:normal;font-weight:normal;line-height:125%;letter-spacing:0px;word-spacing:0px;fill:#00ff00;fill-opacity:1;stroke:none;font-family:Bitstream Vera Sans"
           x="890.32721"
           y="146.71529"
           id="text3093-7-2"
           sodipodi:linespacing="125%"
           transform="matrix(0.36973972,0.92913537,-0.92913537,0.36973972,0,0)"><tspan
             sodipodi:role="line"
             id="tspan3095-7-7"
             x="890.32721"
             y="146.71529">def <tspan
   id="tspan4134"
   style="fill:#ff0000">baz</tspan><tspan
   id="tspan3101-6-1"
   style="fill:#0000ff">():</tspan></tspan><tspan
             sodipodi:role="line"
             x="890.32721"
             y="163.8174"
             id="tspan3103-9-7">    fd<tspan
   style="fill:#0000ff"
   id="tspan3115-1-3">(</tspan><tspan
   style="fill:#ffff00"
   id="tspan3109-3-0">100</tspan><tspan
   style="fill:#0000ff"
   id="tspan3117-1-4">)</tspan></tspan><tspan
             sodipodi:role="line"
             x="890.32721"
             y="180.91957"
             id="tspan3105-5-2">    lt<tspan
   style="fill:#0000ff"
   id="tspan3121-7-1">(</tspan><tspan
   style="fill:#ffff00"
   id="tspan3111-0-7">90</tspan><tspan
   style="fill:#0000ff"
   id="tspan3119-1-7">)</tspan></tspan><tspan
             sodipodi:role="line"
             x="890.32721"
             y="198.02168"
             id="tspan3107-8-4">    circle<tspan
   style="fill:#0000ff"
   id="tspan3123-0-2">(</tspan><tspan
   id="tspan3143-3-4"
   style="fill:#ffff00">100</tspan><tspan
   style="fill:#0000ff"
   id="tspan3125-0-4">)</tspan></tspan><tspan
             sodipodi:role="line"
             x="890.32721"
             y="215.12379"
             id="tspan3127-5-3">    rt<tspan
   style="fill:#0000ff"
   id="tspan3133-8-2">(</tspan><tspan
   style="fill:#ffff00"
   id="tspan3129-2-6">90</tspan><tspan
   style="fill:#0000ff"
   id="tspan3131-3-8">)</tspan></tspan><tspan
             sodipodi:role="line"
             x="890.32721"
             y="232.22591"
             id="tspan3139-2-5">    square<tspan
   style="fill:#0000ff"
   id="tspan3147-0-3">(</tspan><tspan
   style="fill:#ffff00"
   id="tspan3145-7-7">200</tspan><tspan
   style="fill:#0000ff"
   id="tspan3149-0-7">)</tspan></tspan></text>
      </g>
      <g
         transform="matrix(0.52554075,-0.59317658,0.5931726,0.52553723,-42.203608,963.28119)"
         id="pynguin">
        <path
           style="fill:#000000;fill-opacity:1;fill-rule:nonzero;stroke:#000000;stroke-width:0.73066998;stroke-linecap:butt;stroke-linejoin:miter;stroke-miterlimit:4;stroke-opacity:1"
           transform="matrix(0,0.938718,-0.95236,0,215.309,22.1677)"
           d="m 225.714,112.857 c 0,62.329 -50.528,112.857 -112.857,112.857 C 50.5279,225.714 0,175.186 0,112.857 0,50.5279 50.5279,0 112.857,0 175.186,0 225.714,50.5279 225.714,112.857 z"
           stroke-miterlimit="4"
           id="path2844"
           inkscape:connector-curvature="0" />
        <path
           style="fill:#000000;fill-opacity:1;fill-rule:nonzero;stroke:#000000;stroke-width:0.73066998;stroke-linecap:butt;stroke-linejoin:miter;stroke-miterlimit:4;stroke-opacity:1"
           transform="matrix(0,0.323684,-0.391678,0,147.504,176.796)"
           d="m 225.714,112.857 c 0,62.329 -50.528,112.857 -112.857,112.857 C 50.5279,225.714 0,175.186 0,112.857 0,50.5279 50.5279,0 112.857,0 175.186,0 225.714,50.5279 225.714,112.857 z"
           stroke-miterlimit="4"
           id="path2831"
           inkscape:connector-curvature="0" />
        <path
           style="fill:#000000;fill-opacity:1;fill-rule:nonzero;stroke:#000000;stroke-width:0.73066998;stroke-linecap:butt;stroke-linejoin:miter;stroke-miterlimit:4;stroke-opacity:1"
           transform="matrix(0,0.311823,-0.391699,0,147.506,0.11392)"
           d="m 225.714,112.857 c 0,62.329 -50.528,112.857 -112.857,112.857 C 50.5279,225.714 0,175.186 0,112.857 0,50.5279 50.5279,0 112.857,0 175.186,0 225.714,50.5279 225.714,112.857 z"
           stroke-miterlimit="4"
           id="path2829"
           inkscape:connector-curvature="0" />
        <path
           style="fill:#ffffff;fill-opacity:1;fill-rule:nonzero;stroke:#000000;stroke-width:0.73066998;stroke-linecap:butt;stroke-linejoin:miter;stroke-miterlimit:4;stroke-opacity:1"
           transform="matrix(0,0.938718,-0.95236,0,216.019,47.6472)"
           d="m 179.286,50.3887 c 0,31.7564 -4.109,7.5 -81.4289,7.5 C 20.5373,57.8887 0.22739,74.5781 0,42.5315 14.2857,20.0609 41.9705,0.990349 85,0.0315487 128.029,-0.927261 158.571,20.0609 179.286,50.3887 z"
           stroke-miterlimit="4"
           id="path2861"
           inkscape:connector-curvature="0" />
        <g
           transform="translate(8.96508,33.1432)"
           id="g2853">
          <path
             style="fill:#000000;fill-opacity:1;fill-rule:nonzero;stroke:#ffffff;stroke-width:2.52254009;stroke-linecap:butt;stroke-linejoin:miter;stroke-miterlimit:4;stroke-opacity:1"
             transform="matrix(0,0.838042,-0.850221,0,192.979,1.057)"
             d="m 225.714,112.857 c 0,62.329 -50.528,112.857 -112.857,112.857 C 50.5279,225.714 0,175.186 0,112.857 0,50.5279 50.5279,0 112.857,0 175.186,0 225.714,50.5279 225.714,112.857 z"
             stroke-miterlimit="4"
             id="path2816"
             inkscape:connector-curvature="0" />
          <path
             style="fill:#ffcc00;fill-opacity:1;fill-rule:nonzero;stroke:#000000;stroke-width:0.20572101;stroke-linecap:butt;stroke-linejoin:miter;stroke-miterlimit:4;stroke-opacity:1"
             transform="matrix(0,0.838042,-0.850221,0,240.949,75.9766)"
             d="M 51.3974,72.2941 C 33.2147,77.3449 19.698,77.8915 0,72.3356 0,72.3356 18.4853,0 26.4862,0 36.0873,0 51.3974,72.2941 51.3974,72.2941 z"
             stroke-miterlimit="4"
             id="path2818"
             inkscape:connector-curvature="0" />
          <path
             style="fill:#ffffff;fill-opacity:1;fill-rule:nonzero;stroke:#000000;stroke-width:0.606821;stroke-linecap:butt;stroke-linejoin:miter;stroke-miterlimit:4;stroke-opacity:1"
             transform="matrix(0,0.838042,-0.850221,0,178.07,28.5408)"
             d="m 80.9393,22.1694 c 0,15.4007 -12.5022,21.4549 -36.3644,21.4549 C 20.7126,43.6243 0,43.2861 0,27.8854 0,12.4847 19.3442,0 43.2065,0 67.0687,0 80.9393,6.76871 80.9393,22.1694 z"
             stroke-miterlimit="4"
             id="path2821"
             inkscape:connector-curvature="0" />
          <path
             style="fill:#000000;fill-opacity:1;fill-rule:nonzero;stroke:#000000;stroke-width:0.73066998;stroke-linecap:butt;stroke-linejoin:miter;stroke-miterlimit:4;stroke-opacity:1"
             transform="matrix(0,0.713316,-0.443576,0,176.188,48.3167)"
             d="m 48.5714,24.2857 c 0,13.4126 -10.873,24.2857 -24.2857,24.2857 C 10.8731,48.5714 0,37.6983 0,24.2857 0,10.8731 10.8731,0 24.2857,0 37.6984,0 48.5714,10.8731 48.5714,24.2857 z"
             stroke-miterlimit="4"
             id="path2825"
             inkscape:connector-curvature="0" />
          <path
             style="fill:#ffffff;fill-opacity:1;fill-rule:nonzero;stroke:#000000;stroke-width:0.59881902;stroke-linecap:butt;stroke-linejoin:miter;stroke-miterlimit:4;stroke-opacity:1"
             transform="matrix(0,0.838042,-0.850221,0,176.859,96.778)"
             d="m 0,22.1734 c 0,15.4035 12.1724,21.4588 35.4053,21.4588 23.2328,0 43.3991,-0.3382 43.3991,-15.7417 C 78.8044,12.487 59.9705,0 36.7376,0 13.5047,0 0,6.76994 0,22.1734 z"
             stroke-miterlimit="4"
             id="path2834"
             inkscape:connector-curvature="0" />
          <path
             style="fill:#000000;fill-opacity:1;fill-rule:nonzero;stroke:#000000;stroke-width:0.73066998;stroke-linecap:butt;stroke-linejoin:miter;stroke-miterlimit:4;stroke-opacity:1"
             transform="matrix(0,0.713316,-0.443576,0,174.973,111.159)"
             d="m 48.5714,24.2857 c 0,13.4126 -10.873,24.2857 -24.2857,24.2857 C 10.8731,48.5714 0,37.6983 0,24.2857 0,10.8731 10.8731,0 24.2857,0 37.6984,0 48.5714,10.8731 48.5714,24.2857 z"
             stroke-miterlimit="4"
             id="path2827"
             inkscape:connector-curvature="0" />
        </g>
      </g>
    </g>
  </g>
</svg>
