<?xml version="1.0" encoding="UTF-8" standalone="no"?>
<!-- Created with Inkscape (http://www.inkscape.org/) -->

<svg
   xmlns:dc="http://purl.org/dc/elements/1.1/"
   xmlns:cc="http://creativecommons.org/ns#"
   xmlns:rdf="http://www.w3.org/1999/02/22-rdf-syntax-ns#"
   xmlns:svg="http://www.w3.org/2000/svg"
   xmlns="http://www.w3.org/2000/svg"
   xmlns:sodipodi="http://sodipodi.sourceforge.net/DTD/sodipodi-0.dtd"
   xmlns:inkscape="http://www.inkscape.org/namespaces/inkscape"
   width="250"
   height="250"
   id="svg3354"
   version="1.1"
   inkscape:version="0.48.1 r9760"
   sodipodi:docname="New document 3">
  <defs
     id="defs3356" />
  <sodipodi:namedview
     id="base"
     pagecolor="#ffffff"
     bordercolor="#666666"
     borderopacity="1.0"
     inkscape:pageopacity="0.0"
     inkscape:pageshadow="2"
     inkscape:zoom="0.98994949"
     inkscape:cx="206.90431"
     inkscape:cy="107.44444"
     inkscape:document-units="px"
     inkscape:current-layer="layer1"
     showgrid="false"
     inkscape:window-width="1024"
     inkscape:window-height="748"
     inkscape:window-x="-1"
     inkscape:window-y="0"
     inkscape:window-maximized="1" />
  <metadata
     id="metadata3359">
    <rdf:RDF>
      <cc:Work
         rdf:about="">
        <dc:format>image/svg+xml</dc:format>
        <dc:type
           rdf:resource="http://purl.org/dc/dcmitype/StillImage" />
        <dc:title></dc:title>
      </cc:Work>
    </rdf:RDF>
  </metadata>
  <g
     inkscape:label="Layer 1"
     inkscape:groupmode="layer"
     id="layer1"
     transform="translate(0,-802.36218)">
    <g
       id="pynguin"
       transform="matrix(1.0000067,0,0,1,-0.00258664,802.37609)">
      <path
         inkscape:connector-curvature="0"
         id="path2844"
         stroke-miterlimit="4"
         d="m 225.714,112.857 c 0,62.329 -50.528,112.857 -112.857,112.857 C 50.5279,225.714 0,175.186 0,112.857 0,50.5279 50.5279,0 112.857,0 175.186,0 225.714,50.5279 225.714,112.857 z"
         transform="matrix(0,0.938718,-0.95236,0,215.309,22.1677)"
         style="fill:#000000;fill-opacity:1;fill-rule:nonzero;stroke:#000000;stroke-width:0.73066998;stroke-linecap:butt;stroke-linejoin:miter;stroke-miterlimit:4;stroke-opacity:1" />
      <path
         inkscape:connector-curvature="0"
         id="path2831"
         stroke-miterlimit="4"
         d="m 225.714,112.857 c 0,62.329 -50.528,112.857 -112.857,112.857 C 50.5279,225.714 0,175.186 0,112.857 0,50.5279 50.5279,0 112.857,0 175.186,0 225.714,50.5279 225.714,112.857 z"
         transform="matrix(0,0.323684,-0.391678,0,147.504,176.796)"
         style="fill:#000000;fill-opacity:1;fill-rule:nonzero;stroke:#000000;stroke-width:0.73066998;stroke-linecap:butt;stroke-linejoin:miter;stroke-miterlimit:4;stroke-opacity:1" />
      <path
         inkscape:connector-curvature="0"
         id="path2829"
         stroke-miterlimit="4"
         d="m 225.714,112.857 c 0,62.329 -50.528,112.857 -112.857,112.857 C 50.5279,225.714 0,175.186 0,112.857 0,50.5279 50.5279,0 112.857,0 175.186,0 225.714,50.5279 225.714,112.857 z"
         transform="matrix(0,0.311823,-0.391699,0,147.506,0.11392)"
         style="fill:#000000;fill-opacity:1;fill-rule:nonzero;stroke:#000000;stroke-width:0.73066998;stroke-linecap:butt;stroke-linejoin:miter;stroke-miterlimit:4;stroke-opacity:1" />
      <path
         inkscape:connector-curvature="0"
         id="path2861"
         stroke-miterlimit="4"
         d="m 179.286,50.3887 c 0,31.7564 -4.109,7.5 -81.4289,7.5 C 20.5373,57.8887 0.22739,74.5781 0,42.5315 14.2857,20.0609 41.9705,0.990349 85,0.0315487 128.029,-0.927261 158.571,20.0609 179.286,50.3887 z"
         transform="matrix(0,0.938718,-0.95236,0,216.019,47.6472)"
         style="fill:#ffffff;fill-opacity:1;fill-rule:nonzero;stroke:#000000;stroke-width:0.73066998;stroke-linecap:butt;stroke-linejoin:miter;stroke-miterlimit:4;stroke-opacity:1" />
      <g
         id="g2853"
         transform="translate(8.96508,33.1432)">
        <path
           inkscape:connector-curvature="0"
           id="path2816"
           stroke-miterlimit="4"
           d="m 225.714,112.857 c 0,62.329 -50.528,112.857 -112.857,112.857 C 50.5279,225.714 0,175.186 0,112.857 0,50.5279 50.5279,0 112.857,0 175.186,0 225.714,50.5279 225.714,112.857 z"
           transform="matrix(0,0.838042,-0.850221,0,192.979,1.057)"
           style="fill:#000000;fill-opacity:1;fill-rule:nonzero;stroke:#ffffff;stroke-width:2.52254009;stroke-linecap:butt;stroke-linejoin:miter;stroke-miterlimit:4;stroke-opacity:1" />
        <path
           inkscape:connector-curvature="0"
           id="path2818"
           stroke-miterlimit="4"
           d="M 51.3974,72.2941 C 33.2147,77.3449 19.698,77.8915 0,72.3356 0,72.3356 18.4853,0 26.4862,0 36.0873,0 51.3974,72.2941 51.3974,72.2941 z"
           transform="matrix(0,0.838042,-0.850221,0,240.949,75.9766)"
           style="fill:#ffcc00;fill-opacity:1;fill-rule:nonzero;stroke:#000000;stroke-width:0.20572101;stroke-linecap:butt;stroke-linejoin:miter;stroke-miterlimit:4;stroke-opacity:1" />
        <path
           inkscape:connector-curvature="0"
           id="path2821"
           stroke-miterlimit="4"
           d="m 80.9393,22.1694 c 0,15.4007 -12.5022,21.4549 -36.3644,21.4549 C 20.7126,43.6243 0,43.2861 0,27.8854 0,12.4847 19.3442,0 43.2065,0 67.0687,0 80.9393,6.76871 80.9393,22.1694 z"
           transform="matrix(0,0.838042,-0.850221,0,178.07,28.5408)"
           style="fill:#ffffff;fill-opacity:1;fill-rule:nonzero;stroke:#000000;stroke-width:0.606821;stroke-linecap:butt;stroke-linejoin:miter;stroke-miterlimit:4;stroke-opacity:1" />
        <path
           inkscape:connector-curvature="0"
           id="path2825"
           stroke-miterlimit="4"
           d="m 48.5714,24.2857 c 0,13.4126 -10.873,24.2857 -24.2857,24.2857 C 10.8731,48.5714 0,37.6983 0,24.2857 0,10.8731 10.8731,0 24.2857,0 37.6984,0 48.5714,10.8731 48.5714,24.2857 z"
           transform="matrix(0,0.713316,-0.443576,0,176.188,48.3167)"
           style="fill:#000000;fill-opacity:1;fill-rule:nonzero;stroke:#000000;stroke-width:0.73066998;stroke-linecap:butt;stroke-linejoin:miter;stroke-miterlimit:4;stroke-opacity:1" />
        <path
           inkscape:connector-curvature="0"
           id="path2834"
           stroke-miterlimit="4"
           d="m 0,22.1734 c 0,15.4035 12.1724,21.4588 35.4053,21.4588 23.2328,0 43.3991,-0.3382 43.3991,-15.7417 C 78.8044,12.487 59.9705,0 36.7376,0 13.5047,0 0,6.76994 0,22.1734 z"
           transform="matrix(0,0.838042,-0.850221,0,176.859,96.778)"
           style="fill:#ffffff;fill-opacity:1;fill-rule:nonzero;stroke:#000000;stroke-width:0.59881902;stroke-linecap:butt;stroke-linejoin:miter;stroke-miterlimit:4;stroke-opacity:1" />
        <path
           inkscape:connector-curvature="0"
           id="path2827"
           stroke-miterlimit="4"
           d="m 48.5714,24.2857 c 0,13.4126 -10.873,24.2857 -24.2857,24.2857 C 10.8731,48.5714 0,37.6983 0,24.2857 0,10.8731 10.8731,0 24.2857,0 37.6984,0 48.5714,10.8731 48.5714,24.2857 z"
           transform="matrix(0,0.713316,-0.443576,0,174.973,111.159)"
           style="fill:#000000;fill-opacity:1;fill-rule:nonzero;stroke:#000000;stroke-width:0.73066998;stroke-linecap:butt;stroke-linejoin:miter;stroke-miterlimit:4;stroke-opacity:1" />
      </g>
    </g>
  </g>
</svg>
